<svg width="16" height="17" viewBox="0 0 16 17" fill="none" xmlns="http://www.w3.org/2000/svg">
<path d="M8.00388 15.5002H7.98923C7.99151 15.5002 7.9938 15.4992 7.99607 15.4992C7.99857 15.4992 8.00138 15.5002 8.00388 15.5002ZM10.9258 11.1916C11.1473 10.9701 11.5119 10.9701 11.7334 11.1916C11.9548 11.4131 11.9547 11.7767 11.7334 11.9982L8.39646 15.3361C8.29086 15.4416 8.15046 15.4976 7.99607 15.4992C7.84871 15.4973 7.70202 15.4413 7.59666 15.3361L4.25974 11.9982C4.03824 11.7767 4.03823 11.4131 4.25974 11.1916C4.48126 10.9701 4.84489 10.9701 5.06638 11.1916L7.99607 14.1213L10.9258 11.1916ZM7.59568 1.66619C7.81715 1.44472 8.18177 1.44481 8.4033 1.66619L11.7402 5.00311C11.9617 5.22462 11.9617 5.58921 11.7402 5.81072C11.6259 5.92489 11.4829 5.97479 11.333 5.97479C11.183 5.97472 11.04 5.91784 10.9258 5.81072L7.99607 2.88104L5.06638 5.81072C4.84485 6.03208 4.48022 6.03218 4.25876 5.81072C4.03743 5.58925 4.03745 5.22459 4.25876 5.00311L7.59568 1.66619Z" fill="white"/>
</svg>
